<svg width="99" height="42" viewBox="0 0 99 42" fill="none" xmlns="http://www.w3.org/2000/svg">
<rect width="99" height="42" fill="#3D4556"/>
<path fill-rule="evenodd" clip-rule="evenodd" d="M14 0H0V14C0 6.26801 6.26801 0 14 0Z" fill="#BF79FF"/>
<path fill-rule="evenodd" clip-rule="evenodd" d="M85 42L99 42L99 28C99 35.732 92.732 42 85 42Z" fill="#0198FF"/>
<path d="M73.1944 27.0874H70.6982V29.6632H73.1944V27.0874Z" fill="#FF8F28"/>
<path d="M59.3818 25.2567V25.5437H61.8919V21.4238C61.8919 22.5512 61.4248 23.6307 60.602 24.4232C60.2464 24.7716 59.8351 25.0518 59.3818 25.2567Z" fill="#BE78FF"/>
<path d="M32.9699 23.1113H30.3691V25.5368H32.9699V23.1113Z" fill="#FF50A4"/>
<path d="M81.7156 23.3706H79.2334V25.8029H81.7156V23.3706Z" fill="#04E1FF"/>
<path d="M22.6302 16.2992V16.0122H20.1201V20.1321C20.1201 19.0048 20.5873 17.9252 21.41 17.1327C21.7656 16.7843 22.184 16.5041 22.6302 16.2992Z" fill="#BE78FF"/>
<path d="M70.6982 16.5729C69.9521 16.1424 69.0875 15.8896 68.1602 15.8896C65.413 15.8896 63.1748 18.0828 63.1748 20.7747C63.1748 23.4667 65.413 25.6598 68.1602 25.6598C69.0875 25.6598 69.9521 25.4139 70.6982 24.9766V27.0741H73.1944V16.0126H70.6982V16.5729ZM68.1602 23.2549C66.7657 23.2549 65.6361 22.1412 65.6361 20.7816C65.6361 19.4151 66.7726 18.3083 68.1602 18.3083C69.5477 18.3083 70.6842 19.4219 70.6842 20.7816C70.6842 22.1412 69.5547 23.2549 68.1602 23.2549Z" fill="white"/>
<path d="M69.0466 19.9137C68.8723 19.7429 68.6491 19.6268 68.4051 19.579C68.161 19.5311 67.91 19.5585 67.6869 19.6473C67.4568 19.7429 67.2616 19.8932 67.1291 20.0982C66.9896 20.2963 66.9199 20.5355 66.9199 20.7746C66.9199 21.0957 67.0524 21.41 67.2825 21.6423C67.5196 21.8746 67.8333 21.9976 68.168 21.9976C68.4121 21.9976 68.6561 21.9293 68.8583 21.7926C69.0605 21.656 69.2209 21.4647 69.3185 21.246C69.4161 21.0206 69.437 20.7746 69.3882 20.5423C69.3394 20.3032 69.2209 20.0845 69.0466 19.9137Z" fill="white"/>
<path d="M43.1641 12.5415H40.6191V16.0123V18.4583V21.5533C40.6191 22.6806 41.0933 23.7533 41.93 24.5527C42.7667 25.3452 43.9032 25.7962 45.0885 25.7962V23.3639C44.5795 23.3639 44.0915 23.1726 43.7359 22.8309C43.3733 22.4893 43.1711 22.0247 43.1711 21.5465V18.4583H46.1414V16.0123H43.1711V12.5415H43.1641Z" fill="white"/>
<path d="M49.9415 16.0122H47.4453V20.2004V25.5364H49.9206H49.9415V19.9271C50.0042 19.5513 50.1786 19.1961 50.4644 18.9228C50.8131 18.588 51.2872 18.3967 51.7822 18.3967V16.0122C51.1408 16.0122 50.5132 16.1489 49.9415 16.4085V16.0122Z" fill="white"/>
<path d="M59.382 21.4234C59.382 21.9085 59.1798 22.3731 58.8312 22.7147C58.4756 23.0563 57.9945 23.2476 57.4925 23.2476C56.9904 23.2476 56.5093 23.0563 56.1537 22.7147C55.7981 22.3731 55.6029 21.9085 55.6029 21.4234V16.0122H53.0928V21.4234C53.0928 22.5507 53.5599 23.6302 54.3827 24.4228C55.2055 25.2221 56.328 25.6662 57.4925 25.6662C58.1548 25.6662 58.7963 25.5228 59.382 25.2563C59.8283 25.0513 60.2466 24.7712 60.6022 24.4228C61.425 23.6234 61.8921 22.5439 61.8921 21.4234V16.0122H59.382V21.4234Z" fill="white"/>
<path d="M17.9509 16.812C17.5743 16.9623 17.1699 17.0443 16.7586 17.0375C16.3541 17.0375 15.9497 16.9623 15.5732 16.812H15.5453H15.5244V25.5368H18.0206V16.7847L17.9788 16.8052L17.9509 16.812Z" fill="white"/>
<path d="M18.0346 12.883C17.8812 12.7327 17.693 12.6166 17.4908 12.5414C17.2816 12.4526 17.0585 12.4048 16.8284 12.4048C16.3752 12.4116 15.9429 12.5824 15.6152 12.883C15.4618 13.0334 15.3363 13.2042 15.2526 13.3955C15.1689 13.5936 15.1201 13.7986 15.1201 14.0104C15.1201 14.229 15.162 14.4408 15.2526 14.6389C15.4269 15.0284 15.7476 15.3358 16.159 15.4998C16.3682 15.5818 16.5983 15.6228 16.8284 15.6228C17.0585 15.6228 17.2816 15.5818 17.4908 15.4998C17.693 15.4178 17.8812 15.3017 18.0416 15.1582C18.195 15.0079 18.3205 14.8371 18.4042 14.6458C18.4948 14.4476 18.5436 14.2358 18.5436 14.0172C18.5436 13.8054 18.4948 13.5936 18.4042 13.4023C18.3205 13.211 18.195 13.0334 18.0346 12.883Z" fill="white"/>
<path d="M38.3809 20.4669C38.088 20.2141 37.7534 20.0159 37.3838 19.8861C36.9933 19.7426 36.582 19.6675 36.1636 19.6743H33.535C33.4513 19.6743 33.3676 19.6607 33.2909 19.6265C33.2142 19.5992 33.1445 19.5513 33.0887 19.4967C33.026 19.4352 32.9841 19.3669 32.9493 19.2917C32.9144 19.2166 32.9005 19.1346 32.9005 19.0526C32.9005 18.8954 32.9702 18.7383 33.0887 18.6221C33.2073 18.506 33.3676 18.4445 33.535 18.4445H38.6528V16.0122H33.535C32.6983 16.0122 31.8964 16.3333 31.2968 16.8936C31.0109 17.1737 30.7808 17.4948 30.6204 17.8569C30.2997 18.6153 30.2997 19.4693 30.6204 20.2277C30.7808 20.5898 31.0109 20.9178 31.2968 21.1979C31.5826 21.478 31.9243 21.6967 32.2938 21.847C32.6843 22.011 33.1027 22.0861 33.521 22.0861H36.1497C36.3031 22.0793 36.4565 22.1066 36.5959 22.1681C36.6587 22.2023 36.7075 22.2501 36.7423 22.3116C36.7772 22.3731 36.7911 22.4414 36.7772 22.5097C36.7772 22.5849 36.7563 22.6669 36.7214 22.7352C36.6866 22.8035 36.6377 22.8718 36.582 22.9265C36.5262 22.988 36.4565 23.029 36.3798 23.0631C36.3031 23.0973 36.2194 23.111 36.1357 23.111H32.9632V25.5364H36.1357C36.561 25.5433 36.9794 25.4681 37.3699 25.3178C37.7394 25.1607 38.0811 24.942 38.3669 24.6687C38.6528 24.3886 38.8829 24.0607 39.0433 23.7054C39.2106 23.3296 39.2943 22.9265 39.2943 22.5166C39.3013 22.1339 39.2176 21.7513 39.0642 21.3961C38.9108 21.0476 38.6737 20.7265 38.3809 20.4669Z" fill="white"/>
<path d="M77.8803 22.8309C77.5177 22.4893 77.3155 22.0247 77.3155 21.5465V18.4583H80.4183V16.0123H77.3155V12.5415H74.7705V16.0123V18.4583V21.5533C74.7705 22.6806 75.2446 23.7533 76.0813 24.5527C76.9181 25.3452 78.0546 25.7962 79.2399 25.7962V23.3639C78.7239 23.3639 78.2359 23.1726 77.8803 22.8309Z" fill="white"/>
<path d="M24.5198 15.8828C23.8574 15.8828 23.2159 16.0263 22.6302 16.2928C22.184 16.4977 21.7656 16.7778 21.41 17.1263C20.5873 17.9257 20.1201 19.0052 20.1201 20.1257V25.5368H22.6302V20.1257C22.6302 19.6406 22.8324 19.176 23.1811 18.8344C23.5367 18.4927 24.0178 18.3014 24.5198 18.3014C25.0218 18.3014 25.5029 18.4927 25.8585 18.8344C26.2141 19.176 26.4094 19.6406 26.4094 20.1257V25.5368H28.9195V20.1257C28.9195 18.9983 28.4523 17.9188 27.6296 17.1263C26.8068 16.3337 25.6912 15.8896 24.5198 15.8828Z" fill="white"/>
</svg>
