<svg width="124" height="52" viewBox="0 0 124 52" fill="none" xmlns="http://www.w3.org/2000/svg">
<path d="M5.91639 19.8583C5.65764 19.5885 5.34007 19.3801 4.99898 19.2452C4.64613 19.0858 4.26976 19 3.88162 19C3.11711 19.0123 2.38788 19.3188 1.83508 19.8583C1.57632 20.128 1.36461 20.4346 1.22347 20.7779C1.08233 21.1334 1 21.5013 1 21.8814C1 22.2737 1.07057 22.6538 1.22347 23.0094C1.51752 23.7083 2.05855 24.26 2.7525 24.5543C3.10535 24.7014 3.49348 24.775 3.88162 24.775C4.26976 24.775 4.64613 24.7014 4.99898 24.5543C5.34007 24.4072 5.65764 24.1987 5.92816 23.9412C6.18691 23.6715 6.39863 23.365 6.53977 23.0217C6.69267 22.6661 6.775 22.286 6.775 21.8936C6.775 21.5135 6.69267 21.1334 6.53977 20.7901C6.39863 20.4468 6.18691 20.128 5.91639 19.8583Z" fill="white"/>
<path d="M107.425 47.0498H103.3V51.9998H107.425V47.0498Z" fill="#FF8F28"/>
<path d="M82.6748 43.233V43.7502H86.7998V36.3252C86.7998 38.3569 86.0321 40.3024 84.68 41.7308C84.0956 42.3588 83.4196 42.8636 82.6748 43.233Z" fill="#BE78FF"/>
<path d="M33.9998 38.7998H29.0498V43.7498H33.9998V38.7998Z" fill="#FF50A4"/>
<path d="M123.1 39.625H118.975V44.575H123.1V39.625Z" fill="#04E1FF"/>
<path d="M14.2002 26.1747V25.6001H10.0752V33.8501C10.0752 31.5926 10.8429 29.4309 12.195 27.8439C12.7794 27.1461 13.4669 26.5852 14.2002 26.1747Z" fill="#BE78FF"/>
<path d="M102.904 26.9104C101.552 26.0849 99.986 25.6001 98.3062 25.6001C93.3298 25.6001 89.2754 29.8062 89.2754 34.9689C89.2754 40.1316 93.3298 44.3377 98.3062 44.3377C99.986 44.3377 101.552 43.866 102.904 43.0274V47.0501H107.425V25.836H102.904V26.9104ZM98.3062 39.7254C95.7801 39.7254 93.734 37.5896 93.734 34.982C93.734 32.3614 95.7927 30.2386 98.3062 30.2386C100.82 30.2386 102.878 32.3745 102.878 34.982C102.878 37.5896 100.832 39.7254 98.3062 39.7254Z" fill="white"/>
<path d="M100.097 32.926C99.7505 32.5798 99.3076 32.3443 98.8231 32.2474C98.3387 32.1505 97.8404 32.2059 97.3975 32.3859C96.9408 32.5798 96.5532 32.8845 96.2902 33.3C96.0134 33.7016 95.875 34.1864 95.875 34.6711C95.875 35.322 96.138 35.9591 96.5947 36.43C97.0653 36.9009 97.6882 37.1502 98.3525 37.1502C98.837 37.1502 99.3214 37.0117 99.7228 36.7347C100.124 36.4577 100.443 36.0699 100.636 35.6267C100.83 35.1697 100.872 34.6711 100.775 34.2002C100.678 33.7155 100.443 33.2723 100.097 32.926Z" fill="white"/>
<path d="M52.5879 19H48.0254V25.697V30.4165V36.3884C48.0254 38.5636 48.8754 40.6333 50.3754 42.1757C51.8754 43.7049 53.9129 44.575 56.0379 44.575V39.8819C55.1254 39.8819 54.2504 39.5127 53.6129 38.8536C52.9629 38.1944 52.6004 37.298 52.6004 36.3752V30.4165H57.9254V25.697H52.6004V19H52.5879Z" fill="white"/>
<path d="M65.1488 25.6001H60.4004V33.5814V43.7501H65.109H65.1488V33.0606C65.2682 32.3445 65.5997 31.6675 66.1436 31.1467C66.8067 30.5087 67.7087 30.1441 68.6504 30.1441V25.6001C67.4301 25.6001 66.2364 25.8605 65.1488 26.3553V25.6001Z" fill="white"/>
<path d="M82.3285 35.7733C82.3285 36.6853 81.9683 37.5588 81.3473 38.2011C80.7138 38.8433 79.8568 39.203 78.9625 39.203C78.0682 39.203 77.2112 38.8433 76.5777 38.2011C75.9443 37.5588 75.5965 36.6853 75.5965 35.7733V25.6001H71.125V35.7733C71.125 37.8928 71.9572 39.9223 73.4228 41.4123C74.8885 42.9152 76.8882 43.7501 78.9625 43.7501C80.1425 43.7501 81.2852 43.4804 82.3285 42.9794C83.1235 42.594 83.8687 42.0674 84.5022 41.4123C85.9678 39.9094 86.8 37.8799 86.8 35.7733V25.6001H82.3285V35.7733Z" fill="white"/>
<path d="M5.83497 27.3015C5.21277 27.5849 4.54447 27.7395 3.86465 27.7266C3.19635 27.7266 2.52806 27.5849 1.90585 27.3015H1.85976H1.8252V43.75H5.9502V27.25L5.88106 27.2886L5.83497 27.3015Z" fill="white"/>
<path d="M43.8585 34.0888C43.3165 33.6071 42.697 33.2295 42.013 32.9822C41.2904 32.7087 40.5289 32.5655 39.7546 32.5786H34.8894C34.7345 32.5786 34.5797 32.5525 34.4377 32.4874C34.2958 32.4353 34.1667 32.3442 34.0635 32.24C33.9473 32.1229 33.8699 31.9927 33.8054 31.8495C33.7408 31.7062 33.715 31.55 33.715 31.3938C33.715 31.0943 33.8441 30.7949 34.0635 30.5735C34.2828 30.3522 34.5797 30.235 34.8894 30.235H44.3618V25.6001H34.8894C33.3408 25.6001 31.8567 26.212 30.7468 27.2796C30.2177 27.8134 29.7919 28.4253 29.495 29.1154C28.9014 30.5605 28.9014 32.188 29.495 33.6331C29.7919 34.3232 30.2177 34.9481 30.7468 35.4819C31.2759 36.0157 31.9083 36.4323 32.5923 36.7188C33.315 37.0312 34.0893 37.1744 34.8636 37.1744H39.7288C40.0127 37.1614 40.2967 37.2135 40.5548 37.3307C40.6709 37.3958 40.7612 37.4869 40.8258 37.6041C40.8903 37.7213 40.9161 37.8514 40.8903 37.9816C40.8903 38.1249 40.8516 38.2811 40.7871 38.4113C40.7225 38.5415 40.6322 38.6717 40.5289 38.7758C40.4257 38.893 40.2967 38.9711 40.1547 39.0362C40.0127 39.1013 39.8579 39.1274 39.703 39.1274H33.8312V43.7493H39.703C40.4902 43.7623 41.2645 43.6191 41.9872 43.3327C42.6712 43.0332 43.3036 42.6166 43.8327 42.0958C44.3618 41.562 44.7877 40.9371 45.0845 40.2601C45.3942 39.544 45.5491 38.7758 45.5491 37.9947C45.562 37.2656 45.4071 36.5365 45.1232 35.8595C44.8393 35.1955 44.4005 34.5836 43.8585 34.0888Z" fill="white"/>
<path d="M116.63 38.8536C115.941 38.1944 115.557 37.298 115.557 36.3752V30.4165H121.45V25.697H115.557V19H110.725V25.697V30.4165V36.3884C110.725 38.5636 111.625 40.6333 113.214 42.1757C114.803 43.7049 116.961 44.575 119.212 44.575V39.8819C118.232 39.8819 117.305 39.5127 116.63 38.8536Z" fill="white"/>
<path d="M17.9127 25.6001C16.7327 25.6001 15.59 25.8698 14.5467 26.3708C13.7517 26.7561 13.0065 27.2828 12.373 27.9379C10.9074 29.4408 10.0752 31.4703 10.0752 33.5768V43.7501H14.5467V33.5768C14.5467 32.6649 14.9069 31.7914 15.5279 31.1491C16.1614 30.5069 17.0184 30.1472 17.9127 30.1472C18.807 30.1472 19.664 30.5069 20.2975 31.1491C20.9309 31.7914 21.2787 32.6649 21.2787 33.5768V43.7501H25.7502V33.5768C25.7502 31.4574 24.918 29.4279 23.4524 27.9379C21.9867 26.4479 19.9994 25.6129 17.9127 25.6001Z" fill="white"/>
<path d="M7.512 6.652C7.512 7.236 7.376 7.716 7.104 8.092C6.832 8.468 6.46 8.748 5.988 8.932C5.516 9.108 4.976 9.196 4.368 9.196H2.256C2.184 9.196 2.148 9.232 2.148 9.304V12.856C2.148 12.952 2.1 13 2.004 13H1.38C1.332 13 1.296 12.992 1.272 12.976C1.256 12.952 1.248 12.916 1.248 12.868V4.24C1.248 4.144 1.292 4.096 1.38 4.096H4.248C4.88 4.096 5.44 4.184 5.928 4.36C6.424 4.528 6.812 4.8 7.092 5.176C7.372 5.552 7.512 6.044 7.512 6.652ZM6.576 6.616C6.576 6.168 6.48 5.812 6.288 5.548C6.096 5.284 5.824 5.096 5.472 4.984C5.12 4.864 4.7 4.804 4.212 4.804H2.292C2.196 4.804 2.148 4.848 2.148 4.936V8.332C2.148 8.428 2.184 8.476 2.256 8.476H4.296C4.984 8.476 5.536 8.332 5.952 8.044C6.368 7.748 6.576 7.272 6.576 6.616ZM11.1232 13.12C10.5312 13.12 10.0072 12.984 9.55116 12.712C9.10316 12.432 8.75516 12.048 8.50716 11.56C8.25916 11.064 8.13516 10.496 8.13516 9.856C8.13516 9.2 8.25916 8.624 8.50716 8.128C8.76316 7.624 9.11516 7.232 9.56316 6.952C10.0192 6.664 10.5432 6.52 11.1352 6.52C11.7352 6.52 12.2552 6.66 12.6952 6.94C13.1432 7.22 13.4912 7.612 13.7392 8.116C13.9872 8.612 14.1112 9.184 14.1112 9.832C14.1112 10.48 13.9832 11.052 13.7272 11.548C13.4792 12.036 13.1312 12.42 12.6832 12.7C12.2432 12.98 11.7232 13.12 11.1232 13.12ZM11.1472 12.484C11.5952 12.484 11.9792 12.376 12.2992 12.16C12.6192 11.944 12.8632 11.636 13.0312 11.236C13.2072 10.836 13.2952 10.368 13.2952 9.832C13.2952 9.288 13.2072 8.816 13.0312 8.416C12.8552 8.008 12.6032 7.696 12.2752 7.48C11.9552 7.256 11.5752 7.144 11.1352 7.144C10.6952 7.144 10.3112 7.256 9.98316 7.48C9.65516 7.696 9.39916 8.008 9.21516 8.416C9.03916 8.816 8.95116 9.288 8.95116 9.832C8.95116 10.368 9.03916 10.836 9.21516 11.236C9.39916 11.636 9.65516 11.944 9.98316 12.16C10.3112 12.376 10.6992 12.484 11.1472 12.484ZM23.5073 6.64C23.5553 6.64 23.5873 6.656 23.6033 6.688C23.6273 6.712 23.6313 6.744 23.6153 6.784L21.8033 12.856C21.7953 12.912 21.7713 12.952 21.7313 12.976C21.6993 12.992 21.6513 13 21.5872 13H21.1193C20.9913 13 20.9113 12.952 20.8793 12.856L19.3553 8.068C19.3233 7.996 19.2953 7.96 19.2713 7.96C19.2553 7.96 19.2393 7.996 19.2233 8.068L17.7713 12.856C17.7633 12.912 17.7433 12.952 17.7113 12.976C17.6793 12.992 17.6313 13 17.5673 13H17.0633C16.9353 13 16.8553 12.952 16.8233 12.856L14.9393 6.796C14.9233 6.748 14.9233 6.712 14.9393 6.688C14.9633 6.656 15.0033 6.64 15.0593 6.64H15.5873C15.6353 6.64 15.6713 6.648 15.6953 6.664C15.7273 6.68 15.7473 6.712 15.7553 6.76L17.2913 11.752C17.3153 11.832 17.3433 11.872 17.3753 11.872C17.4073 11.864 17.4353 11.82 17.4593 11.74L18.9713 6.736C18.9873 6.704 19.0073 6.68 19.0313 6.664C19.0553 6.648 19.0873 6.64 19.1273 6.64H19.5713C19.6113 6.64 19.6473 6.648 19.6793 6.664C19.7113 6.68 19.7313 6.712 19.7393 6.76L21.3233 11.752C21.3473 11.832 21.3753 11.872 21.4073 11.872C21.4393 11.864 21.4673 11.82 21.4913 11.74L22.9553 6.748C22.9713 6.708 22.9953 6.68 23.0273 6.664C23.0593 6.648 23.0953 6.64 23.1353 6.64H23.5073ZM25.2757 10.18C25.2757 10.588 25.3757 10.968 25.5757 11.32C25.7757 11.672 26.0397 11.956 26.3677 12.172C26.7037 12.38 27.0797 12.484 27.4957 12.484C27.9357 12.484 28.3157 12.396 28.6357 12.22C28.9637 12.044 29.2397 11.784 29.4637 11.44C29.4877 11.4 29.5117 11.38 29.5357 11.38C29.5597 11.372 29.5877 11.376 29.6197 11.392L30.0277 11.62C30.0917 11.652 30.0957 11.7 30.0397 11.764C29.8397 12.068 29.6117 12.32 29.3557 12.52C29.1077 12.72 28.8237 12.872 28.5037 12.976C28.1837 13.072 27.8317 13.12 27.4477 13.12C26.8557 13.12 26.3357 12.984 25.8877 12.712C25.4397 12.44 25.0877 12.06 24.8317 11.572C24.5757 11.076 24.4477 10.512 24.4477 9.88C24.4477 9.176 24.5797 8.576 24.8437 8.08C25.1077 7.584 25.4637 7.2 25.9117 6.928C26.3597 6.656 26.8677 6.52 27.4357 6.52C28.0117 6.52 28.5117 6.648 28.9357 6.904C29.3597 7.16 29.6877 7.528 29.9197 8.008C30.1517 8.488 30.2677 9.068 30.2677 9.748C30.2677 9.804 30.2597 9.86 30.2437 9.916C30.2357 9.972 30.1877 10 30.0997 10H25.3597C25.3357 10 25.3157 10.02 25.2997 10.06C25.2837 10.092 25.2757 10.132 25.2757 10.18ZM29.2597 9.436C29.3477 9.436 29.4037 9.424 29.4277 9.4C29.4517 9.376 29.4637 9.332 29.4637 9.268C29.4637 8.884 29.3797 8.532 29.2117 8.212C29.0517 7.884 28.8197 7.624 28.5157 7.432C28.2197 7.232 27.8637 7.132 27.4477 7.132C26.9757 7.132 26.5797 7.248 26.2597 7.48C25.9397 7.704 25.6957 7.992 25.5277 8.344C25.3677 8.696 25.2877 9.06 25.2877 9.436H29.2597ZM31.9369 13C31.8889 13 31.8529 12.988 31.8289 12.964C31.8049 12.94 31.7929 12.904 31.7929 12.856V6.772C31.7929 6.684 31.8329 6.64 31.9129 6.64H32.4289C32.5009 6.64 32.5369 6.68 32.5369 6.76V7.552C32.5369 7.592 32.5489 7.616 32.5729 7.624C32.5969 7.632 32.6249 7.62 32.6569 7.588C32.8729 7.332 33.0849 7.128 33.2929 6.976C33.5009 6.816 33.7049 6.7 33.9049 6.628C34.1129 6.556 34.3209 6.52 34.5289 6.52C34.8169 6.52 34.9609 6.568 34.9609 6.664V7.216C34.9609 7.28 34.9289 7.308 34.8649 7.3C34.8089 7.292 34.7409 7.284 34.6609 7.276C34.5889 7.268 34.5009 7.264 34.3969 7.264C34.2129 7.264 34.0169 7.308 33.8089 7.396C33.6009 7.476 33.4049 7.588 33.2209 7.732C33.0369 7.876 32.8849 8.036 32.7649 8.212C32.6449 8.388 32.5849 8.568 32.5849 8.752V12.856C32.5849 12.952 32.5329 13 32.4289 13H31.9369ZM36.5491 10.18C36.5491 10.588 36.6491 10.968 36.8491 11.32C37.0491 11.672 37.3131 11.956 37.6411 12.172C37.9771 12.38 38.3531 12.484 38.7691 12.484C39.2091 12.484 39.5891 12.396 39.9091 12.22C40.2371 12.044 40.5131 11.784 40.7371 11.44C40.7611 11.4 40.7851 11.38 40.8091 11.38C40.8331 11.372 40.8611 11.376 40.8931 11.392L41.3011 11.62C41.3651 11.652 41.3691 11.7 41.3131 11.764C41.1131 12.068 40.8851 12.32 40.6291 12.52C40.3811 12.72 40.0971 12.872 39.7771 12.976C39.4571 13.072 39.1051 13.12 38.7211 13.12C38.1291 13.12 37.6091 12.984 37.1611 12.712C36.7131 12.44 36.3611 12.06 36.1051 11.572C35.8491 11.076 35.7211 10.512 35.7211 9.88C35.7211 9.176 35.8531 8.576 36.1171 8.08C36.3811 7.584 36.7371 7.2 37.1851 6.928C37.6331 6.656 38.1411 6.52 38.7091 6.52C39.2851 6.52 39.7851 6.648 40.2091 6.904C40.6331 7.16 40.9611 7.528 41.1931 8.008C41.4251 8.488 41.5411 9.068 41.5411 9.748C41.5411 9.804 41.5331 9.86 41.5171 9.916C41.5091 9.972 41.4611 10 41.3731 10H36.6331C36.6091 10 36.5891 10.02 36.5731 10.06C36.5571 10.092 36.5491 10.132 36.5491 10.18ZM40.5331 9.436C40.6211 9.436 40.6771 9.424 40.7011 9.4C40.7251 9.376 40.7371 9.332 40.7371 9.268C40.7371 8.884 40.6531 8.532 40.4851 8.212C40.3251 7.884 40.0931 7.624 39.7891 7.432C39.4931 7.232 39.1371 7.132 38.7211 7.132C38.2491 7.132 37.8531 7.248 37.5331 7.48C37.2131 7.704 36.9691 7.992 36.8011 8.344C36.6411 8.696 36.5611 9.06 36.5611 9.436H40.5331ZM47.6143 13C47.5663 13 47.5263 12.988 47.4943 12.964C47.4703 12.932 47.4583 12.892 47.4583 12.844V12.292C47.4583 12.228 47.4463 12.192 47.4223 12.184C47.3983 12.176 47.3623 12.196 47.3143 12.244C47.2343 12.324 47.1143 12.436 46.9543 12.58C46.7943 12.716 46.5863 12.84 46.3303 12.952C46.0743 13.064 45.7623 13.12 45.3943 13.12C44.8903 13.12 44.4343 13.004 44.0263 12.772C43.6183 12.532 43.2903 12.176 43.0423 11.704C42.8023 11.224 42.6823 10.632 42.6823 9.928C42.6823 9.248 42.8023 8.656 43.0423 8.152C43.2823 7.64 43.6183 7.24 44.0503 6.952C44.4823 6.664 44.9783 6.52 45.5383 6.52C45.9543 6.52 46.2943 6.588 46.5583 6.724C46.8303 6.86 47.0623 7.008 47.2543 7.168C47.3263 7.224 47.3743 7.244 47.3983 7.228C47.4223 7.212 47.4343 7.164 47.4343 7.084V4.24C47.4343 4.144 47.4783 4.096 47.5663 4.096H48.1063C48.1863 4.096 48.2263 4.14 48.2263 4.228V12.832C48.2263 12.896 48.2143 12.94 48.1903 12.964C48.1663 12.988 48.1223 13 48.0583 13H47.6143ZM47.4343 7.984C47.1623 7.72 46.8863 7.516 46.6063 7.372C46.3343 7.22 46.0303 7.144 45.6943 7.144C45.2703 7.144 44.8903 7.252 44.5543 7.468C44.2263 7.676 43.9663 7.984 43.7743 8.392C43.5903 8.8 43.4983 9.296 43.4983 9.88C43.4983 10.488 43.5943 10.988 43.7863 11.38C43.9863 11.764 44.2463 12.048 44.5663 12.232C44.8863 12.416 45.2343 12.508 45.6103 12.508C45.9543 12.508 46.2623 12.424 46.5343 12.256C46.8143 12.088 47.0343 11.884 47.1943 11.644C47.3543 11.404 47.4343 11.172 47.4343 10.948V7.984ZM52.9723 13C52.9163 13 52.8763 12.988 52.8523 12.964C52.8283 12.932 52.8163 12.884 52.8163 12.82V4.24C52.8163 4.144 52.8603 4.096 52.9483 4.096H53.4883C53.5683 4.096 53.6083 4.148 53.6083 4.252V7.228C53.6083 7.308 53.6203 7.352 53.6443 7.36C53.6763 7.368 53.7203 7.348 53.7763 7.3C53.8323 7.236 53.9403 7.144 54.1003 7.024C54.2683 6.904 54.4883 6.792 54.7603 6.688C55.0403 6.576 55.3723 6.52 55.7563 6.52C56.3563 6.52 56.8443 6.668 57.2203 6.964C57.5963 7.252 57.8763 7.644 58.0603 8.14C58.2443 8.628 58.3363 9.18 58.3363 9.796C58.3363 10.82 58.0963 11.632 57.6163 12.232C57.1363 12.824 56.4643 13.12 55.6003 13.12C55.2163 13.12 54.8883 13.064 54.6163 12.952C54.3523 12.832 54.1403 12.696 53.9803 12.544C53.8203 12.392 53.7043 12.272 53.6323 12.184C53.6003 12.144 53.5723 12.128 53.5483 12.136C53.5243 12.136 53.5123 12.164 53.5123 12.22L53.4643 12.82C53.4483 12.94 53.3803 13 53.2603 13H52.9723ZM53.6083 10.864C53.6083 11.16 53.6963 11.436 53.8723 11.692C54.0563 11.94 54.2883 12.14 54.5683 12.292C54.8483 12.436 55.1443 12.508 55.4563 12.508C55.8403 12.508 56.1843 12.416 56.4883 12.232C56.8003 12.04 57.0483 11.744 57.2323 11.344C57.4163 10.936 57.5083 10.42 57.5083 9.796C57.5083 8.972 57.3403 8.324 57.0043 7.852C56.6763 7.38 56.1883 7.144 55.5403 7.144C55.1403 7.144 54.7723 7.236 54.4363 7.42C54.1003 7.604 53.8243 7.828 53.6083 8.092V10.864ZM59.9832 14.98C59.7512 14.98 59.5672 14.972 59.4312 14.956C59.2952 14.948 59.2272 14.908 59.2272 14.836V14.488C59.2272 14.432 59.2472 14.392 59.2872 14.368C59.3352 14.352 59.4312 14.344 59.5752 14.344H60.3192C60.5032 14.344 60.6672 14.28 60.8112 14.152C60.9632 14.024 61.0872 13.864 61.1832 13.672C61.2872 13.48 61.3512 13.284 61.3752 13.084C61.4072 12.884 61.3952 12.712 61.3392 12.568L59.0592 6.82C59.0432 6.772 59.0432 6.732 59.0592 6.7C59.0752 6.66 59.1152 6.64 59.1792 6.64H59.7192C59.7672 6.64 59.8032 6.648 59.8272 6.664C59.8592 6.68 59.8792 6.712 59.8872 6.76L61.8072 11.692C61.8392 11.764 61.8752 11.8 61.9152 11.8C61.9552 11.792 61.9912 11.74 62.0232 11.644L63.8952 6.748C63.9112 6.708 63.9312 6.68 63.9552 6.664C63.9792 6.648 64.0112 6.64 64.0512 6.64H64.4832C64.5312 6.64 64.5632 6.656 64.5792 6.688C64.6032 6.72 64.6072 6.752 64.5912 6.784L61.9032 13.708C61.8072 13.964 61.6952 14.172 61.5672 14.332C61.4392 14.5 61.2952 14.628 61.1352 14.716C60.9832 14.812 60.8112 14.88 60.6192 14.92C60.4272 14.96 60.2152 14.98 59.9832 14.98Z" fill="#BFCAE0"/>
</svg>
